<svg xmlns="http://www.w3.org/2000/svg" role="img" aria-labelledby="title desc" viewBox="0 0 1200 760">
  <title id="title">Definitely Secure dark mode example</title>
  <desc id="desc">Definitely Secure color system example, version 1.0.0.</desc>
  <metadata>Copyright 2026 Definitely Secure Studio. All rights reserved.</metadata>
  <rect width="1200" height="760" fill="#101828"/>
  <rect x="0" y="0" width="1200" height="110" fill="#1D2939"/>
  <g transform="translate(44 20) scale(0.6166666666666667)">
    <path fill="#F8FAFC" d="M22 12h76c7.73 0 14 6.27 14 14v48c0 7.73-6.27 14-14 14H63l-23 20V88H22C14.27 88 8 81.73 8 74V26c0-7.73 6.27-14 14-14Z"/>
    <path fill="none" stroke="#101828" stroke-linecap="round" stroke-linejoin="round" stroke-width="8" d="m35 36 16 16-16 16M62 68h22"/>
    <circle cx="84" cy="35" r="7" fill="#F4B942"/>
  </g>
  <text x="140" y="70" font-family="Arial, Helvetica, sans-serif" font-size="34" font-weight="800" fill="#F8FAFC">DEFINITELY SECURE</text>
  <text x="900" y="68" font-family="Arial, Helvetica, sans-serif" font-size="22" fill="#BFD9D7" text-decoration="underline">Episode archive</text>
  <rect x="60" y="160" width="700" height="520" rx="28" fill="#1D2939" stroke="#475467" stroke-width="2"/>
  <text x="110" y="230" font-family="Arial, Helvetica, sans-serif" font-size="24" font-weight="700" fill="#F8FAFC">SYSTEM OVERVIEW</text>
  <text x="110" y="280" font-family="Arial, Helvetica, sans-serif" font-size="21" fill="#E4E7EC">Everything is operating within expected parameters.</text>
  <rect x="110" y="330" width="600" height="120" rx="18" fill="#344054"/>
  <circle cx="155" cy="390" r="15" fill="#B36B00"/>
  <text x="190" y="383" font-family="Arial, Helvetica, sans-serif" font-size="20" font-weight="700" fill="#F8FAFC">Expected parameters changed</text>
  <text x="190" y="417" font-family="Arial, Helvetica, sans-serif" font-size="18" fill="#F8FAFC">Review the status report before replying.</text>
  <rect x="110" y="510" width="240" height="68" rx="14" fill="#F4B942"/>
  <text x="230" y="553" text-anchor="middle" font-family="Arial, Helvetica, sans-serif" font-size="20" font-weight="700" fill="#101828">OPEN REPORT</text>
  <rect x="810" y="160" width="330" height="250" rx="28" fill="#D95D52"/>
  <text x="850" y="230" font-family="Arial, Helvetica, sans-serif" font-size="20" font-weight="700" fill="#101828">TODAY'S CERTAINTY</text>
  <text x="850" y="315" font-family="Arial, Helvetica, sans-serif" font-size="68" font-weight="800" fill="#101828">94%</text>
  <text x="850" y="360" font-family="Arial, Helvetica, sans-serif" font-size="18" fill="#101828">± several assumptions</text>
  <rect x="810" y="450" width="330" height="230" rx="28" fill="#344054"/>
  <text x="850" y="515" font-family="Arial, Helvetica, sans-serif" font-size="20" font-weight="700" fill="#F8FAFC">NOTES</text>
  <text x="850" y="560" font-family="Arial, Helvetica, sans-serif" font-size="18" fill="#E4E7EC">Links stay underlined.</text>
  <text x="850" y="598" font-family="Arial, Helvetica, sans-serif" font-size="18" fill="#E4E7EC">Status always has a label.</text>
  <text x="850" y="636" font-family="Arial, Helvetica, sans-serif" font-size="18" fill="#E4E7EC">Accent color stays scarce.</text>
</svg>
